<svg id="Layer_1" data-name="Layer 1" xmlns="http://www.w3.org/2000/svg" xmlns:xlink="http://www.w3.org/1999/xlink" viewBox="0 0 387.35 736.12"><defs><style>.cls-1,.cls-4{fill:none;}.cls-2{clip-path:url(#clip-path);}.cls-3{fill:#fc0;}.cls-4{stroke:#000;stroke-linecap:round;stroke-linejoin:round;stroke-width:3px;}.cls-5{fill:#7f4408;}.cls-6{fill:red;}.cls-7{fill:#fff;}.cls-8{fill:#1f7b26;}.cls-9{fill:#f5bedd;}.cls-10{fill:#f79d90;}.cls-11{fill:#7f7f7f;}</style><clipPath id="clip-path" transform="translate(0 0)"><rect class="cls-1" width="387.35" height="736"/></clipPath></defs><title>flanders</title><g class="cls-2"><path class="cls-3" d="M86.14,205s-20,22.35-43.53-4.71L4.93,182.79A11,11,0,0,1,3.54,168.5C8.85,160.2,15.3,166,15.3,166l21,7.84s5.07,0.46,1.38-4.38-23.06-20.06-23.06-20.06-8.76-8.3-.23-15.68,12.91,0.46,12.91.46l23.29,21.44s6.69,0.92,4.84-4.38-12-20.75-12-20.75-4.38-6.92,3.92-12.91,14.06,2.31,14.06,2.31L81.7,152.13s12,9.45,15.45,9.45l10.37-9.91s6.23-7.61,15.68-.23-0.69,15.45-.69,15.45l-13.37,16.83s0.11,23.85-23,21.26" transform="translate(0 0)"/><path class="cls-4" d="M86.14,205s-20,22.35-43.53-4.71L4.93,182.79A11,11,0,0,1,3.54,168.5C8.85,160.2,15.3,166,15.3,166l21,7.84s5.07,0.46,1.38-4.38-23.06-20.06-23.06-20.06-8.76-8.3-.23-15.68,12.91,0.46,12.91.46l23.29,21.44s6.69,0.92,4.84-4.38-12-20.75-12-20.75-4.38-6.92,3.92-12.91,14.06,2.31,14.06,2.31L81.7,152.13s12,9.45,15.45,9.45l10.37-9.91s6.23-7.61,15.68-.23-0.69,15.45-.69,15.45l-13.37,16.83s0.11,23.85-23,21.26h0ZM73.86,179.56s14.76,3,14.52,14.76" transform="translate(0 0)"/></g><path class="cls-3" d="M249.53,159.34l-1,9.78s19.57,14.42,2.58,22.66v19.05s-9.79,4.63-30.9,5.15-51.5-16-51.5-16l-2.06-57.68S144,150.58,142.41,130,162,106.81,162,106.81l0.52,23.69s3.09,7.21,8.75,5.66c0,0,10.3,6.18,8.24-20.6,0,0-12.87-46.35,4.64-68S239.23,29,239.23,29s30.9,4.63,28.84,27.81a9.33,9.33,0,0,0,6.7,6.69c5.67,1.54,2.06,14.42,2.06,14.42L245.4,104.75l17.51,1s11.05-.41,10.3,13.9c0,0,1.55,14.94-24.72,8.75l1,30.9" transform="translate(0 0)"/><path class="cls-4" d="M249.53,159.34l-1,9.78s19.57,14.42,2.58,22.66v19.05s-9.79,4.63-30.9,5.15-51.5-16-51.5-16l-2.06-57.68S144,150.58,142.41,130,162,106.81,162,106.81l0.52,23.69s3.09,7.21,8.75,5.66c0,0,10.3,6.18,8.24-20.6,0,0-12.87-46.35,4.64-68S239.23,29,239.23,29s30.9,4.63,28.84,27.81a9.33,9.33,0,0,0,6.7,6.69c5.67,1.54,2.06,14.42,2.06,14.42L245.4,104.75l17.51,1s11.05-.41,10.3,13.9c0,0,1.55,14.94-24.72,8.75l1,30.9h0Zm-55.62-58.19L162,106.81" transform="translate(0 0)"/><path class="cls-5" d="M299,147.49s-20.6-20.6-26.27-21.63L271,126c-2.83,3.41-9.24,6.11-23.75,1.76l-2.35.17s-6.18-1.55-14.42,5.15l-22.14,21.11s-3.09,5.15,2.57,4.63c0,0,48.41,10.3,87.55-4.12,0,0,5.66-1,.52-7.21" transform="translate(0 0)"/><path class="cls-4" d="M299,147.49s-20.6-20.6-26.27-21.63L271,126c-2.83,3.41-9.24,6.11-23.75,1.76l-2.35.17s-6.18-1.55-14.42,5.15l-22.14,21.11s-3.09,5.15,2.57,4.63c0,0,48.41,10.3,87.55-4.12,0,0,5.66-1,.52-7.21h0Z" transform="translate(0 0)"/><path d="M237.17,174.79V162a194.07,194.07,0,0,1-26.27-3.2c-5.66.52-2.57-4.63-2.57-4.63l5.66-5.4c-9.59-2.63-25.2-4.6-26.78,6.43a16.19,16.19,0,0,0,2.66,11.53,30.07,30.07,0,0,1,19.48,2.89s14.28-5.89,19.72,11.18c10.2,0.13,22.69-.6,8.09-6" transform="translate(0 0)"/><path class="cls-4" d="M237.17,174.79V162a194.07,194.07,0,0,1-26.27-3.2c-5.66.52-2.57-4.63-2.57-4.63l5.66-5.4c-9.59-2.63-25.2-4.6-26.78,6.43a16.19,16.19,0,0,0,2.66,11.53,30.07,30.07,0,0,1,19.48,2.89s14.28-5.89,19.72,11.18c10.2,0.13,22.69-.6,8.09-6h0Z" transform="translate(0 0)"/><path class="cls-6" d="M209.36,169.64a30.07,30.07,0,0,0-19.48-2.89c3.63,5.55,11.68,11.47,29.27,13.7,0,0,4.67.3,9.94,0.37-5.45-17.08-19.72-11.18-19.72-11.18" transform="translate(0 0)"/><path class="cls-4" d="M209.36,169.64a30.07,30.07,0,0,0-19.48-2.89c3.63,5.55,11.68,11.47,29.27,13.7,0,0,4.67.3,9.94,0.37-5.45-17.08-19.72-11.18-19.72-11.18h0Zm28.55-35.25s-15.29,9.41-16.47,14.12M245,133.21S234.38,145,234.38,149.68m15.29-14.12L243.79,152m14.12-16.47s3.53,7.06,3.53,14.12m1.17-12.94S272,147.33,272,152m-2.35-17.65s12.94,8.24,14.12,14.12M150.85,121.45s8.23-3.53,10.59,0" transform="translate(0 0)"/><path class="cls-7" d="M242.61,97.92a23.53,23.53,0,1,1-23.53-23.53,23.53,23.53,0,0,1,23.53,23.53" transform="translate(0 0)"/><path class="cls-4" d="M242.61,97.92a23.53,23.53,0,1,1-23.53-23.53,23.53,23.53,0,0,1,23.53,23.53h0Z" transform="translate(0 0)"/><path class="cls-7" d="M265,74.39a21.14,21.14,0,0,0-19,30.39l17,1s8.56-.31,10.1,9.37a21.17,21.17,0,0,0-8-40.76" transform="translate(0 0)"/><path class="cls-4" d="M265,74.39a21.14,21.14,0,0,0-19,30.39l17,1s8.56-.31,10.1,9.37a21.17,21.17,0,0,0-8-40.76h0Z" transform="translate(0 0)"/><path d="M213.9,99.1a4.23,4.23,0,1,1-4.23-4.24,4.23,4.23,0,0,1,4.23,4.24" transform="translate(0 0)"/><path d="M272.73,97.92a4.23,4.23,0,1,1-4.23-4.24,4.23,4.23,0,0,1,4.23,4.24" transform="translate(0 0)"/><path class="cls-4" d="M240.48,191.8s5.43,2.26,10.59,0" transform="translate(0 0)"/><path class="cls-5" d="M202.55,3.81c-25.14,4.43-40.31,14.05-45.81,18.11,7.84,0.53,21.54,4,32.68,20.3C198.34,34.77,210,31.42,219.8,30c0.41-18.69-10-24.42-17.25-26.15" transform="translate(0 0)"/><g class="cls-2"><path class="cls-4" d="M202.55,3.81c-25.14,4.43-40.31,14.05-45.81,18.11,7.84,0.53,21.54,4,32.68,20.3C198.34,34.77,210,31.42,219.8,30c0.41-18.69-10-24.42-17.25-26.15h0Z" transform="translate(0 0)"/></g><path class="cls-5" d="M235.35,1.65c-3.48-.19-5.68-0.14-5.68-0.14a155.9,155.9,0,0,0-27.12,2.31c7.27,1.73,17.66,7.46,17.25,26.15A94.47,94.47,0,0,1,239.23,29h0.07c6.57-16.09,1-23.89-3.94-27.41" transform="translate(0 0)"/><g class="cls-2"><path class="cls-4" d="M235.35,1.65c-3.48-.19-5.68-0.14-5.68-0.14a155.9,155.9,0,0,0-27.12,2.31c7.27,1.73,17.66,7.46,17.25,26.15A94.47,94.47,0,0,1,239.23,29h0.07c6.57-16.09,1-23.89-3.94-27.41h0Z" transform="translate(0 0)"/></g><path class="cls-5" d="M156.74,21.93c-1.57,1.16-2.37,1.87-2.37,1.87-25.88,42.35-14.12,123.53-14.12,123.53,4.7,25.85,18.79,31.36,27.68,32.15l-1.33-37.14S144,150.58,142.41,130,162,106.81,162,106.81l0.52,23.69s3.09,7.21,8.75,5.66c0,0,10.3,6.18,8.24-20.6,0,0-12.87-46.35,4.64-68a38.77,38.77,0,0,1,5.3-5.36C178.28,26,164.58,22.46,156.74,21.93" transform="translate(0 0)"/><path class="cls-4" d="M156.74,21.93c-1.57,1.16-2.37,1.87-2.37,1.87-25.88,42.35-14.12,123.53-14.12,123.53,4.7,25.85,18.79,31.36,27.68,32.15l-1.33-37.14S144,150.58,142.41,130,162,106.81,162,106.81l0.52,23.69s3.09,7.21,8.75,5.66c0,0,10.3,6.18,8.24-20.6,0,0-12.87-46.35,4.64-68a38.77,38.77,0,0,1,5.3-5.36C178.28,26,164.58,22.46,156.74,21.93h0Z" transform="translate(0 0)"/><path class="cls-5" d="M264.1,7.93c-10-4.57-21.87-5.91-28.75-6.28,4.9,3.52,10.51,11.32,3.94,27.41a50.5,50.5,0,0,1,17.78,6.79c11.18-10,8.76-22.59,7-27.91" transform="translate(0 0)"/><g class="cls-2"><path class="cls-4" d="M264.1,7.93c-10-4.57-21.87-5.91-28.75-6.28,4.9,3.52,10.51,11.32,3.94,27.41a50.5,50.5,0,0,1,17.78,6.79c11.18-10,8.76-22.59,7-27.91h0Z" transform="translate(0 0)"/></g><path class="cls-5" d="M280.92,26.6a41.3,41.3,0,0,1-15.24,18.16,20.78,20.78,0,0,1,2.39,12.09,7.85,7.85,0,0,0,.51,1.47c5.79-1.89,13.61-8,12.86-27.46a25.7,25.7,0,0,0-.52-4.26" transform="translate(0 0)"/><path class="cls-4" d="M280.92,26.6a41.3,41.3,0,0,1-15.24,18.16,20.78,20.78,0,0,1,2.39,12.09,7.85,7.85,0,0,0,.51,1.47c5.79-1.89,13.61-8,12.86-27.46a25.7,25.7,0,0,0-.52-4.26h0Z" transform="translate(0 0)"/><path class="cls-5" d="M280.92,26.6c-1.92-9.15-8.74-15-16.82-18.67,1.73,5.32,4.15,17.93-7,27.91a25.55,25.55,0,0,1,8.61,8.92A41.3,41.3,0,0,0,280.92,26.6" transform="translate(0 0)"/><path class="cls-4" d="M280.92,26.6c-1.92-9.15-8.74-15-16.82-18.67,1.73,5.32,4.15,17.93-7,27.91a25.55,25.55,0,0,1,8.61,8.92A41.3,41.3,0,0,0,280.92,26.6h0Z" transform="translate(0 0)"/><path class="cls-8" d="M262.61,223.8l2.33,6.68c0.28-.77.55-1.56,0.81-2.38,13.11,20.05,32.15,72.17,32.15,72.17,0,0.21-.07.42-0.1,0.64l23.63,7.6c-1.23,5.52-9.16,10.71-16.48,14.42,20.56,30.7,19.31,57.24,16,72,57-22.23,57-85.25,57-85.25-10.59-47.06-115.29-85.88-115.29-85.88" transform="translate(0 0)"/><path class="cls-4" d="M262.61,223.8l2.33,6.68c0.28-.77.55-1.56,0.81-2.38,13.11,20.05,32.15,72.17,32.15,72.17,0,0.21-.07.42-0.1,0.64l23.63,7.6c-1.23,5.52-9.16,10.71-16.48,14.42,20.56,30.7,19.31,57.24,16,72,57-22.23,57-85.25,57-85.25-10.59-47.06-115.29-85.88-115.29-85.88h0Z" transform="translate(0 0)"/><path class="cls-8" d="M105.49,196.77c-3.09,5.06-8.79,9.39-19.35,8.21,0,0-17.74,19.82-39.46-.47-3.22,2.36-7.59,6.78-5.25,12.24l-0.09.2c11.56,8.44,39.09,22,70.55-8.91,1.49-4.73,1.88-11-6.4-11.27" transform="translate(0 0)"/><path class="cls-4" d="M105.49,196.77c-3.09,5.06-8.79,9.39-19.35,8.21,0,0-17.74,19.82-39.46-.47-3.22,2.36-7.59,6.78-5.25,12.24l-0.09.2c11.56,8.44,39.09,22,70.55-8.91,1.49-4.73,1.88-11-6.4-11.27h0Z" transform="translate(0 0)"/><path class="cls-8" d="M158,233.43a300.2,300.2,0,0,0-49.53,15.08s14.12-32.94,1.18-35.29a29.78,29.78,0,0,0,2.22-5.18c-31.46,30.88-59,17.35-70.55,8.91-1.52,3.5-22.09,53.16,14.21,96.27,0,0,25.88,24.7,58.82,7.06l28.21-12.54c0.75-1.78,1.2-2.75,1.2-2.75L157.9,239.1a31.33,31.33,0,0,1,.12-5.67" transform="translate(0 0)"/><path class="cls-4" d="M158,233.43a300.2,300.2,0,0,0-49.53,15.08s14.12-32.94,1.18-35.29a29.78,29.78,0,0,0,2.22-5.18c-31.46,30.88-59,17.35-70.55,8.91-1.52,3.5-22.09,53.16,14.21,96.27,0,0,25.88,24.7,58.82,7.06l28.21-12.54c0.75-1.78,1.2-2.75,1.2-2.75L157.9,239.1a31.33,31.33,0,0,1,.12-5.67h0Z" transform="translate(0 0)"/><path class="cls-8" d="M265.75,228.1a43.92,43.92,0,0,0-3.14-4.3s-20,42.35-92.94-1.18a10.07,10.07,0,0,0-7.55,2c19.37,15.12,85.29,61.15,103.63,3.46" transform="translate(0 0)"/><path class="cls-4" d="M265.75,228.1a43.92,43.92,0,0,0-3.14-4.3s-20,42.35-92.94-1.18a10.07,10.07,0,0,0-7.55,2c19.37,15.12,85.29,61.15,103.63,3.46h0Z" transform="translate(0 0)"/><path class="cls-8" d="M301.44,317.92s-4.71-11.76-3.53-17.65c0,0-19-52.11-32.15-72.17-18.34,57.7-84.26,11.66-103.63-3.46-2.59,2.12-4.73,6.3-4.22,14.45L143.79,305s-29.34,63.37-8.31,102.21c27.22,10.64,116.87,40.44,181.25.48v-0.33s21.18-40-15.29-89.41" transform="translate(0 0)"/><path class="cls-4" d="M301.44,317.92s-4.71-11.76-3.53-17.65c0,0-19-52.11-32.15-72.17-18.34,57.7-84.26,11.66-103.63-3.46-2.59,2.12-4.73,6.3-4.22,14.45L143.79,305s-29.34,63.37-8.31,102.21c27.22,10.64,116.87,40.44,181.25.48v-0.33s21.18-40-15.29-89.41h0Z" transform="translate(0 0)"/><path class="cls-8" d="M135.48,407.18l0.08,0.15,1.18,14.12s29.41,25.88,101.18,21.18,78.82-20,78.82-20v-15c-64.38,40-154,10.16-181.25-.48" transform="translate(0 0)"/><path class="cls-4" d="M135.48,407.18l0.08,0.15,1.18,14.12s29.41,25.88,101.18,21.18,78.82-20,78.82-20v-15c-64.38,40-154,10.16-181.25-.48h0Zm90.76-162-1,7.86m7.21-8.19V254m5.89-9.82,1,7.86m4.91-9.83,2,7.53" transform="translate(0 0)"/><path class="cls-9" d="M167.32,199.1s-8.23,12.94-4.71,23.53c0,0,31.77,31.77,55.29,30.59,0,0,4.71-31.77,15.29-36.47,0,0-58.82-4.71-65.88-17.65" transform="translate(0 0)"/><path class="cls-4" d="M167.32,199.1s-8.23,12.94-4.71,23.53c0,0,31.77,31.77,55.29,30.59,0,0,4.71-31.77,15.29-36.47,0,0-58.82-4.71-65.88-17.65h0Z" transform="translate(0 0)"/><path class="cls-9" d="M249.67,246.15s-2.35-17.65-16.47-29.41c0,0,20-5.88,23.53-11.76,0,0,10.59,12.94,10.59,17.65,0,0-3.53,15.29-17.65,23.53" transform="translate(0 0)"/><path class="cls-4" d="M249.67,246.15s-2.35-17.65-16.47-29.41c0,0,20-5.88,23.53-11.76,0,0,10.59,12.94,10.59,17.65,0,0-3.53,15.29-17.65,23.53h0Z" transform="translate(0 0)"/><path class="cls-10" d="M234.55,217.92h-3.25c-5.29,4.21-8.91,15.15-11,23.75,5.68,2.51,15.19,4.13,27.38-3.36a49.39,49.39,0,0,0-13.09-20.39" transform="translate(0 0)"/><path class="cls-4" d="M234.55,217.92h-3.25c-5.29,4.21-8.91,15.15-11,23.75,5.68,2.51,15.19,4.13,27.38-3.36a49.39,49.39,0,0,0-13.09-20.39h0ZM108.49,265V248.51" transform="translate(0 0)"/><path class="cls-11" d="M304.92,443.28s1.8-7.5.89-13.09c-10.34,4.57-30.18,10-67.9,12.44-48.06,3.15-77.13-7.42-91.08-14.74-4.14,35.67-23.89,210.33-18.22,250,0,0,58.3,19.67,81.48,5.62L222,466.46s9.83,0.7,14-.7c0,0,30.91,169.29,22.48,213.54,0,0,52,20.37,76.56,4.21,0,0,.7-155.24-30.2-240.24" transform="translate(0 0)"/><path class="cls-4" d="M304.92,443.28s1.8-7.5.89-13.09c-10.34,4.57-30.18,10-67.9,12.44-48.06,3.15-77.13-7.42-91.08-14.74-4.14,35.67-23.89,210.33-18.22,250,0,0,58.3,19.67,81.48,5.62L222,466.46s9.83,0.7,14-.7c0,0,30.91,169.29,22.48,213.54,0,0,52,20.37,76.56,4.21,0,0,.7-155.24-30.2-240.24h0Z" transform="translate(0 0)"/><g class="cls-2"><path d="M335.12,686.33l-1.93-1.65c-18.87,10.43-51.16,2.3-66.31-2.5-4.76,5.1-12.54,15-12.54,25.22,0,0,11.24,21.78,34.42,16.16l1.4-9.84s37.93,28.8,95.53,4.21c0,0,5.62-19-50.58-31.61" transform="translate(0 0)"/><path class="cls-4" d="M335.12,686.33l-1.93-1.65c-18.87,10.43-51.16,2.3-66.31-2.5-4.76,5.1-12.54,15-12.54,25.22,0,0,11.24,21.78,34.42,16.16l1.4-9.84s37.93,28.8,95.53,4.21c0,0,5.62-19-50.58-31.61h0Z" transform="translate(0 0)"/><path d="M206.57,687l-0.66-1.48c-20.37,8-58-1.85-72-6C122.35,686,100.57,700,97,715.83c0,0,45.66,36.53,94.13,7.73l2.81-9.13,3.51,7s13.35,0.7,17.56-6.32c0,0,.7-22.48-8.43-28.1" transform="translate(0 0)"/><path class="cls-4" d="M206.57,687l-0.66-1.48c-20.37,8-58-1.85-72-6C122.35,686,100.57,700,97,715.83c0,0,45.66,36.53,94.13,7.73l2.81-9.13,3.51,7s13.35,0.7,17.56-6.32c0,0,.7-22.48-8.43-28.1h0Z" transform="translate(0 0)"/></g></svg>